<?xml version="1.0" standalone="no"?><!-- Generator: Gravit.io --><svg xmlns="http://www.w3.org/2000/svg" xmlns:xlink="http://www.w3.org/1999/xlink" style="isolation:isolate" viewBox="0 0 1024 1024" width="1024" height="1024"><defs><clipPath id="_clipPath_joOPik1vOnfKJvlMjXVkGkKZ6Xdo6vkK"><rect width="1024" height="1024"/></clipPath></defs><g clip-path="url(#_clipPath_joOPik1vOnfKJvlMjXVkGkKZ6Xdo6vkK)"><g id="Group"><radialGradient id="_rgradient_2" fx="50%" fy="50%" cx="50%" cy="50%" r="50%"><stop offset="61.73913043478261%" stop-opacity="1" style="stop-color:rgb(194,198,205)"/><stop offset="68.69565217391305%" stop-opacity="1" style="stop-color:rgb(181,185,191)"/><stop offset="85.65217391304348%" stop-opacity="1" style="stop-color:rgb(159,161,166)"/><stop offset="96.08695652173913%" stop-opacity="1" style="stop-color:rgb(93,93,93)"/></radialGradient><radialGradient id="_rgradient_3" fx="50%" fy="50%" cx="50%" cy="50%" r="50%"><stop offset="87.82608695652175%" stop-opacity="1" style="stop-color:rgb(1,24,72)"/><stop offset="92.6086956521739%" stop-opacity="1" style="stop-color:rgb(0,37,109)"/><stop offset="96.95652173913044%" stop-opacity="1" style="stop-color:rgb(0,43,128)"/><stop offset="100%" stop-opacity="1" style="stop-color:rgb(1,24,72)"/></radialGradient><path d=" M 27 512 C 27 244.321 244.321 27 512 27 C 779.679 27 997 244.321 997 512 C 997 779.679 779.679 997 512 997 C 244.321 997 27 779.679 27 512 Z " fill="url(#_rgradient_2)" vector-effect="non-scaling-stroke" stroke-width="50.521" stroke="url(#_rgradient_3)" stroke-linejoin="miter" stroke-linecap="square" stroke-miterlimit="3"/><line x1="272.026" y1="512" x2="436.219" y2="512" vector-effect="non-scaling-stroke" stroke-width="56.836" stroke="rgb(80,124,213)" stroke-linejoin="round" stroke-linecap="butt" stroke-miterlimit="3"/><path d=" M 452.179 288.673 L 483.755 317.495 Q 502.763 336.079 509.015 351.596 Q 515.267 367.114 515.33 381.283 L 515.33 429.904" fill="none" vector-effect="non-scaling-stroke" stroke-width="56.836" stroke="rgb(0,43,128)" stroke-linejoin="round" stroke-linecap="butt" stroke-miterlimit="3"/><path d=" M 110.677 512 C 110.677 466.69 147.463 429.904 192.773 429.904 C 238.083 429.904 274.869 466.69 274.869 512 C 274.869 557.31 238.083 594.096 192.773 594.096 C 147.463 594.096 110.677 557.31 110.677 512 Z " fill="none"/><g style="isolation: isolate;"><path d=" M 110.677 512 C 110.677 466.69 147.463 429.904 192.773 429.904 C 238.083 429.904 274.869 466.69 274.869 512 C 274.869 557.31 238.083 594.096 192.773 594.096 C 147.463 594.096 110.677 557.31 110.677 512 Z " fill="none" vector-effect="non-scaling-stroke" stroke-width="37.891" stroke="rgb(56,93,153)" stroke-linejoin="round" stroke-linecap="butt" stroke-miterlimit="1.414"/><path d=" M 110.677 512 C 110.677 466.69 147.463 429.904 192.773 429.904 C 238.083 429.904 274.869 466.69 274.869 512 C 274.869 557.31 238.083 594.096 192.773 594.096 C 147.463 594.096 110.677 557.31 110.677 512 Z " fill="none" vector-effect="non-scaling-stroke" stroke-width="32.839" stroke="rgb(80,124,213)" stroke-linejoin="miter" stroke-linecap="square" stroke-miterlimit="3"/></g><path d=" M 305.874 234.464 C 305.874 189.154 342.66 152.367 387.97 152.367 C 433.28 152.367 470.067 189.154 470.067 234.464 C 470.067 279.774 433.28 316.56 387.97 316.56 C 342.66 316.56 305.874 279.774 305.874 234.464 Z " fill="none"/><g style="isolation: isolate;"><path d=" M 305.874 234.464 C 305.874 189.154 342.66 152.367 387.97 152.367 C 433.28 152.367 470.067 189.154 470.067 234.464 C 470.067 279.774 433.28 316.56 387.97 316.56 C 342.66 316.56 305.874 279.774 305.874 234.464 Z " fill="none" vector-effect="non-scaling-stroke" stroke-width="37.891" stroke="rgb(1,24,72)" stroke-linejoin="round" stroke-linecap="butt" stroke-miterlimit="1.414"/><path d=" M 305.874 234.464 C 305.874 189.154 342.66 152.367 387.97 152.367 C 433.28 152.367 470.067 189.154 470.067 234.464 C 470.067 279.774 433.28 316.56 387.97 316.56 C 342.66 316.56 305.874 279.774 305.874 234.464 Z " fill="none" vector-effect="non-scaling-stroke" stroke-width="32.839" stroke="rgb(0,43,128)" stroke-linejoin="miter" stroke-linecap="square" stroke-miterlimit="3"/></g><line x1="749.448" y1="512" x2="587.781" y2="512" vector-effect="non-scaling-stroke" stroke-width="56.836" stroke="rgb(80,124,213)" stroke-linejoin="round" stroke-linecap="butt" stroke-miterlimit="3"/><path d=" M 913.323 512 C 913.323 466.69 876.537 429.904 831.227 429.904 C 785.917 429.904 749.131 466.69 749.131 512 C 749.131 557.31 785.917 594.096 831.227 594.096 C 876.537 594.096 913.323 557.31 913.323 512 Z " fill="none"/><g style="isolation: isolate;"><path d=" M 913.323 512 C 913.323 466.69 876.537 429.904 831.227 429.904 C 785.917 429.904 749.131 466.69 749.131 512 C 749.131 557.31 785.917 594.096 831.227 594.096 C 876.537 594.096 913.323 557.31 913.323 512 Z " fill="none" vector-effect="non-scaling-stroke" stroke-width="37.891" stroke="rgb(56,93,153)" stroke-linejoin="round" stroke-linecap="butt" stroke-miterlimit="1.414"/><path d=" M 913.323 512 C 913.323 466.69 876.537 429.904 831.227 429.904 C 785.917 429.904 749.131 466.69 749.131 512 C 749.131 557.31 785.917 594.096 831.227 594.096 C 876.537 594.096 913.323 557.31 913.323 512 Z " fill="none" vector-effect="non-scaling-stroke" stroke-width="32.839" stroke="rgb(80,124,213)" stroke-linejoin="miter" stroke-linecap="square" stroke-miterlimit="3"/></g><path d=" M 457.965 512 C 457.965 482.177 482.177 457.965 512 457.965 C 541.823 457.965 566.035 482.177 566.035 512 C 566.035 541.823 541.823 566.035 512 566.035 C 482.177 566.035 457.965 541.823 457.965 512 Z " fill="rgb(0,43,128)" vector-effect="non-scaling-stroke" stroke-width="2.526" stroke="rgb(1,24,72)" stroke-linejoin="round" stroke-linecap="butt" stroke-miterlimit="1.414"/><path d=" M 363.67 187.732 C 351.402 187.732 346.846 191.785 346.846 202.686 L 346.846 264.372 C 346.846 266.914 347.59 268.746 348.715 270.098 L 348.715 275.588 C 348.715 278.676 351.235 281.196 354.323 281.196 L 361.8 281.196 C 364.888 281.196 367.408 278.676 367.408 275.588 L 367.408 273.718 L 408.532 273.718 L 408.532 275.588 C 408.532 278.676 411.052 281.196 414.14 281.196 L 421.617 281.196 C 424.705 281.196 427.225 278.676 427.225 275.588 L 427.225 270.096 C 428.35 268.746 429.094 266.912 429.094 264.372 L 429.094 204.555 C 429.094 196.415 428.085 187.732 416.009 187.732 L 363.67 187.732 Z  M 369.277 195.209 L 408.532 195.209 C 409.565 195.209 410.401 196.046 410.401 197.078 L 410.401 200.817 C 410.401 201.849 409.565 202.686 408.532 202.686 L 369.277 202.686 C 368.249 202.686 367.408 201.845 367.408 200.817 L 367.408 197.078 C 367.408 196.05 368.249 195.209 369.277 195.209 Z  M 361.8 208.294 L 414.14 208.294 C 417.879 208.294 419.748 210.163 419.748 213.902 L 419.748 236.333 C 419.748 240.072 416.097 241.825 414.14 241.825 L 361.8 241.941 C 358.062 241.941 356.193 240.072 356.193 236.333 L 356.193 213.902 C 356.193 210.163 358.062 208.294 361.8 208.294 Z  M 344.977 210.163 C 342.917 210.163 341.238 211.842 341.238 213.902 L 341.238 228.856 C 341.238 230.916 342.917 232.595 344.977 232.595 L 344.977 210.163 Z  M 430.963 210.163 L 430.963 232.595 C 433.029 232.595 434.702 230.916 434.702 228.856 L 434.702 213.902 C 434.702 211.842 433.029 210.163 430.963 210.163 Z  M 362.735 251.287 C 366.348 251.287 369.277 254.216 369.277 257.83 C 369.277 261.443 366.348 264.372 362.735 264.372 C 359.122 264.372 356.193 261.443 356.193 257.83 C 356.193 254.216 359.122 251.287 362.735 251.287 Z  M 413.205 251.287 C 416.819 251.287 419.748 254.216 419.748 257.83 C 419.748 261.443 416.819 264.372 413.205 264.372 C 409.592 264.372 406.663 261.443 406.663 257.83 C 406.663 254.216 409.592 251.287 413.205 251.287 Z " fill="rgb(0,43,128)"/><path d=" M 190.103 465.269 C 189.02 465.269 187.894 465.226 187.178 465.945 L 147.597 496.5 C 146.517 497.579 145.769 498.661 146.136 500.095 C 146.499 501.526 147.64 502.648 148.723 503.014 L 162.666 506.609 L 147.597 518.181 C 146.528 519.013 146.022 520.377 146.29 521.704 C 146.542 523.035 147.528 524.108 148.834 524.472 L 162.778 528.067 L 147.597 539.75 C 146.528 540.582 146.022 541.946 146.29 543.273 C 146.542 544.604 147.528 545.677 148.834 546.041 L 197.073 558.622 C 198.278 558.927 199.554 558.587 200.448 557.724 L 238.23 522.559 C 239.235 521.618 239.614 520.187 239.206 518.873 C 238.799 517.559 237.677 516.592 236.316 516.383 L 223.948 514.359 L 238.226 500.99 C 239.231 500.051 239.611 498.621 239.205 497.307 C 238.799 495.993 237.679 495.026 236.319 494.814 L 224.283 492.679 L 238.676 479.31 C 239.396 478.595 239.72 477.15 239.352 475.715 C 238.985 474.285 237.863 473.497 236.427 473.131 L 190.103 465.269 Z  M 217.651 498.859 L 227.996 500.656 L 196.961 529.637 L 157.718 519.417 L 171.435 508.856 L 197.299 515.596 L 198.307 515.596 C 199.394 515.596 200.178 515.19 200.898 514.471 L 217.651 498.859 Z  M 217.313 520.428 L 227.996 522.225 L 196.961 551.206 L 157.83 540.986 L 171.662 530.425 L 197.073 537.054 C 198.278 537.358 199.554 537.018 200.448 536.155 L 217.313 520.428 Z " fill="rgb(56,93,153)"/><path d=" M 335.177 699.698 C 329.455 699.698 324.792 703.894 324.792 709.044 L 324.792 728.615 L 288.445 760.888 L 288.445 769.795 L 324.792 753.729 L 324.792 773.45 L 314.407 783.815 L 314.407 793.161 L 329.985 788.488 L 340.369 788.488 L 355.947 793.161 L 355.947 783.815 L 345.562 773.445 L 345.562 753.733 L 381.909 769.795 L 381.909 760.888 L 345.562 728.615 L 345.562 709.044 C 345.562 703.894 340.899 699.698 335.177 699.698 Z " fill="rgb(0,43,128)"/><path d=" M 611.779 726.714 L 553.68 702.716 Q 534.734 692.612 524.63 677.456 Q 514.526 662.299 512 642.717 L 512 594.096" fill="none" vector-effect="non-scaling-stroke" stroke-width="56.836" stroke="rgb(0,43,128)" stroke-linejoin="round" stroke-linecap="butt" stroke-miterlimit="3"/><path d=" M 770.919 754.172 C 770.919 799.482 734.133 836.268 688.823 836.268 C 643.513 836.268 606.727 799.482 606.727 754.172 C 606.727 708.861 643.513 672.075 688.823 672.075 C 734.133 672.075 770.919 708.861 770.919 754.172 Z " fill="none"/><g style="isolation: isolate;"><path d=" M 770.919 754.172 C 770.919 799.482 734.133 836.268 688.823 836.268 C 643.513 836.268 606.727 799.482 606.727 754.172 C 606.727 708.861 643.513 672.075 688.823 672.075 C 734.133 672.075 770.919 708.861 770.919 754.172 Z " fill="none" vector-effect="non-scaling-stroke" stroke-width="37.891" stroke="rgb(1,24,72)" stroke-linejoin="round" stroke-linecap="butt" stroke-miterlimit="1.414"/><path d=" M 770.919 754.172 C 770.919 799.482 734.133 836.268 688.823 836.268 C 643.513 836.268 606.727 799.482 606.727 754.172 C 606.727 708.861 643.513 672.075 688.823 672.075 C 734.133 672.075 770.919 708.861 770.919 754.172 Z " fill="none" vector-effect="non-scaling-stroke" stroke-width="32.839" stroke="rgb(0,43,128)" stroke-linejoin="miter" stroke-linecap="square" stroke-miterlimit="3"/></g><path d=" M 412.221 718.971 L 470.32 694.974 Q 489.266 684.87 499.37 669.713 Q 509.474 654.557 512 634.975 L 512 586.354" fill="none" vector-effect="non-scaling-stroke" stroke-width="56.836" stroke="rgb(0,43,128)" stroke-linejoin="round" stroke-linecap="butt" stroke-miterlimit="3"/><path d=" M 253.081 746.429 C 253.081 791.74 289.867 828.526 335.177 828.526 C 380.487 828.526 417.273 791.74 417.273 746.429 C 417.273 701.119 380.487 664.333 335.177 664.333 C 289.867 664.333 253.081 701.119 253.081 746.429 Z " fill="none"/><g style="isolation: isolate;"><path d=" M 253.081 746.429 C 253.081 791.74 289.867 828.526 335.177 828.526 C 380.487 828.526 417.273 791.74 417.273 746.429 C 417.273 701.119 380.487 664.333 335.177 664.333 C 289.867 664.333 253.081 701.119 253.081 746.429 Z " fill="none" vector-effect="non-scaling-stroke" stroke-width="37.891" stroke="rgb(1,24,72)" stroke-linejoin="round" stroke-linecap="butt" stroke-miterlimit="1.414"/><path d=" M 253.081 746.429 C 253.081 791.74 289.867 828.526 335.177 828.526 C 380.487 828.526 417.273 791.74 417.273 746.429 C 417.273 701.119 380.487 664.333 335.177 664.333 C 289.867 664.333 253.081 701.119 253.081 746.429 Z " fill="none" vector-effect="non-scaling-stroke" stroke-width="32.839" stroke="rgb(0,43,128)" stroke-linejoin="miter" stroke-linecap="square" stroke-miterlimit="3"/></g><path d=" M 688.823 707.444 C 677.823 707.444 671.464 708.887 667.685 710.637 C 665.798 711.514 664.567 712.481 663.753 713.343 C 662.939 714.2 662.4 715.309 662.4 715.309 C 662.121 716.058 662.152 716.888 662.486 717.614 C 662.821 718.34 663.431 718.903 664.181 719.179 C 664.931 719.459 665.762 719.428 666.489 719.094 C 667.216 718.76 667.78 718.149 668.055 717.397 C 668.314 717.134 668.944 716.658 670.265 716.044 C 671.142 715.643 672.507 715.218 674.076 714.813 L 678.008 723.662 C 660.265 726.387 657.362 735.601 657.362 738.779 L 657.362 781.797 C 657.362 786.233 660.909 789.78 665.349 789.78 L 666.95 789.78 L 662.77 796.049 C 662.034 796.923 661.869 798.143 662.345 799.181 C 662.821 800.22 663.854 800.89 664.996 800.903 C 666.138 800.916 667.186 800.269 667.685 799.242 L 673.954 789.78 L 703.692 789.78 L 709.96 799.242 C 710.469 800.254 711.511 800.887 712.644 800.87 C 713.776 800.853 714.799 800.19 715.277 799.163 C 715.752 798.134 715.597 796.924 714.876 796.049 L 710.696 789.78 L 712.296 789.78 C 714.418 789.79 716.455 788.951 717.955 787.451 C 719.454 785.951 720.293 783.914 720.283 781.793 L 720.283 738.775 C 720.283 735.381 717.381 726.316 699.637 723.658 L 703.57 714.81 C 705.135 715.211 706.504 715.639 707.381 716.04 C 708.702 716.654 709.331 717.13 709.591 717.393 C 709.866 718.145 710.43 718.756 711.157 719.09 C 711.884 719.425 712.715 719.455 713.464 719.175 C 714.216 718.9 714.827 718.336 715.161 717.609 C 715.496 716.881 715.526 716.051 715.246 715.301 C 715.246 715.301 714.707 714.2 713.893 713.335 C 713.079 712.477 711.848 711.51 709.96 710.633 C 706.185 708.887 699.822 707.44 688.823 707.44 L 688.823 707.444 Z  M 688.823 713.343 C 692.343 713.343 695.076 713.555 697.549 713.834 L 693.495 723.044 C 690.382 722.882 687.263 722.882 684.151 723.044 L 680.1 713.83 C 682.996 713.5 685.908 713.337 688.823 713.343 L 688.823 713.343 Z  M 682.676 730.791 L 694.969 730.791 C 695.921 730.791 696.688 731.558 696.688 732.514 L 696.688 733.006 C 696.688 733.462 696.506 733.9 696.183 734.222 C 695.86 734.545 695.422 734.725 694.966 734.724 L 682.68 734.724 C 682.223 734.725 681.784 734.544 681.461 734.221 C 681.138 733.897 680.957 733.459 680.958 733.002 L 680.958 732.51 C 680.958 731.558 681.725 730.791 682.68 730.791 L 682.676 730.791 Z  M 668.672 738.657 L 708.981 738.657 C 710.857 738.657 712.422 740.222 712.422 742.098 L 712.422 762.744 C 712.403 764.636 710.874 766.165 708.981 766.185 L 668.668 766.185 C 666.776 766.165 665.247 764.636 665.227 762.744 L 665.227 742.098 C 665.227 740.222 666.793 738.657 668.668 738.657 L 668.672 738.657 Z  M 671.13 770.117 C 674.388 770.117 677.029 772.758 677.029 776.016 C 677.029 779.274 674.388 781.915 671.13 781.915 C 667.872 781.915 665.231 779.274 665.231 776.016 C 665.231 772.758 667.872 770.117 671.13 770.117 Z  M 706.523 770.117 C 709.781 770.117 712.422 772.758 712.422 776.016 C 712.422 779.274 709.781 781.915 706.523 781.915 C 703.266 781.915 700.625 779.274 700.625 776.016 C 700.625 772.758 703.266 770.117 706.523 770.117 Z " fill="rgb(0,43,128)"/><path d=" M 794.509 475.282 C 789.008 475.282 784.495 479.795 784.495 485.296 L 784.495 538.704 C 784.495 544.205 789.008 548.718 794.509 548.718 L 867.945 548.718 C 873.446 548.718 877.959 544.205 877.959 538.704 L 877.959 485.296 C 877.959 479.795 873.446 475.282 867.945 475.282 L 794.509 475.282 Z  M 794.509 481.958 L 867.945 481.958 C 869.821 481.958 871.283 483.42 871.283 485.296 L 871.283 538.704 C 871.283 540.58 869.821 542.042 867.945 542.042 L 794.509 542.042 C 793.621 542.053 792.765 541.705 792.137 541.076 C 791.509 540.448 791.16 539.592 791.171 538.704 L 791.171 485.296 C 791.171 483.42 792.633 481.958 794.509 481.958 Z  M 824.551 495.31 L 807.861 512 L 824.551 528.69 L 824.551 495.31 Z  M 837.903 495.31 L 837.903 528.69 L 854.593 512 L 837.903 495.31 Z " fill="rgb(56,93,153)"/><path d=" M 594.096 512 C 594.096 466.69 557.31 429.904 512 429.904 C 466.69 429.904 429.904 466.69 429.904 512 C 429.904 557.31 466.69 594.096 512 594.096 C 557.31 594.096 594.096 557.31 594.096 512 Z " fill="none"/><g style="isolation: isolate;"><path d=" M 594.096 512 C 594.096 466.69 557.31 429.904 512 429.904 C 466.69 429.904 429.904 466.69 429.904 512 C 429.904 557.31 466.69 594.096 512 594.096 C 557.31 594.096 594.096 557.31 594.096 512 Z " fill="none" vector-effect="non-scaling-stroke" stroke-width="37.891" stroke="rgb(56,93,153)" stroke-linejoin="round" stroke-linecap="butt" stroke-miterlimit="1.414"/><path d=" M 594.096 512 C 594.096 466.69 557.31 429.904 512 429.904 C 466.69 429.904 429.904 466.69 429.904 512 C 429.904 557.31 466.69 594.096 512 594.096 C 557.31 594.096 594.096 557.31 594.096 512 Z " fill="none" vector-effect="non-scaling-stroke" stroke-width="32.839" stroke="rgb(80,124,213)" stroke-linejoin="miter" stroke-linecap="square" stroke-miterlimit="3"/></g></g></g></svg>